<svg xmlns="http://www.w3.org/2000/svg" xmlns:xlink="http://www.w3.org/1999/xlink" width="300" zoomAndPan="magnify" viewBox="0 0 224.87999 74.999997" height="100" preserveAspectRatio="xMidYMid meet" version="1.0"><defs><clipPath id="6bd3725259"><path d="M 0 0.0195312 L 224.761719 0.0195312 L 224.761719 74.980469 L 0 74.980469 Z M 0 0.0195312 " clip-rule="nonzero"/></clipPath><clipPath id="5aea66b7ab"><path d="M 1 5 L 224 5 L 224 74 L 1 74 Z M 1 5 " clip-rule="nonzero"/></clipPath><clipPath id="156e182652"><path d="M 125.042969 -74.070312 L 223.632812 24.515625 L 99.601562 148.546875 L 1.011719 49.960938 Z M 125.042969 -74.070312 " clip-rule="nonzero"/></clipPath><clipPath id="87820c2b4b"><path d="M 125.042969 -74.070312 L 223.632812 24.515625 L 99.601562 148.546875 L 1.011719 49.960938 Z M 125.042969 -74.070312 " clip-rule="nonzero"/></clipPath><clipPath id="58d73bc9bc"><path d="M 40 19 L 42 19 L 42 20 L 40 20 Z M 40 19 " clip-rule="nonzero"/></clipPath><clipPath id="c28962fc4f"><path d="M 125.042969 -74.070312 L 223.632812 24.515625 L 99.601562 148.546875 L 1.011719 49.960938 Z M 125.042969 -74.070312 " clip-rule="nonzero"/></clipPath><clipPath id="18da990bd5"><path d="M 125.042969 -74.070312 L 223.632812 24.515625 L 99.601562 148.546875 L 1.011719 49.960938 Z M 125.042969 -74.070312 " clip-rule="nonzero"/></clipPath><clipPath id="6838a9705b"><path d="M 140 50 L 142 50 L 142 52 L 140 52 Z M 140 50 " clip-rule="nonzero"/></clipPath><clipPath id="28a47fa138"><path d="M 125.042969 -74.070312 L 223.632812 24.515625 L 99.601562 148.546875 L 1.011719 49.960938 Z M 125.042969 -74.070312 " clip-rule="nonzero"/></clipPath><clipPath id="6f3911b7dc"><path d="M 125.042969 -74.070312 L 223.632812 24.515625 L 99.601562 148.546875 L 1.011719 49.960938 Z M 125.042969 -74.070312 " clip-rule="nonzero"/></clipPath><clipPath id="bd2fca5dd5"><path d="M 198 31 L 200 31 L 200 33 L 198 33 Z M 198 31 " clip-rule="nonzero"/></clipPath><clipPath id="592553aae3"><path d="M 125.042969 -74.070312 L 223.632812 24.515625 L 99.601562 148.546875 L 1.011719 49.960938 Z M 125.042969 -74.070312 " clip-rule="nonzero"/></clipPath><clipPath id="1586e10405"><path d="M 125.042969 -74.070312 L 223.632812 24.515625 L 99.601562 148.546875 L 1.011719 49.960938 Z M 125.042969 -74.070312 " clip-rule="nonzero"/></clipPath><clipPath id="791bbf6b00"><path d="M 83.71875 0.0195312 L 113.703125 0.0195312 L 113.703125 30.003906 L 83.71875 30.003906 Z M 83.71875 0.0195312 " clip-rule="nonzero"/></clipPath></defs><g clip-path="url(#6bd3725259)"><path fill="#ffffff" d="M 0 0.0195312 L 224.878906 0.0195312 L 224.878906 74.980469 L 0 74.980469 Z M 0 0.0195312 " fill-opacity="1" fill-rule="nonzero"/><path fill="#ffffff" d="M 0 0.0195312 L 224.878906 0.0195312 L 224.878906 74.980469 L 0 74.980469 Z M 0 0.0195312 " fill-opacity="1" fill-rule="nonzero"/></g><g clip-path="url(#5aea66b7ab)"><g clip-path="url(#156e182652)"><g clip-path="url(#87820c2b4b)"><path fill="#7b3516" d="M 223.007812 24.65625 C 223.210938 24.367188 223.09375 24.078125 222.777344 24.019531 C 222.308594 23.925781 221.820312 23.886719 221.339844 23.90625 C 220.734375 23.929688 220.136719 24.070312 219.53125 24.105469 C 218.53125 24.164062 217.527344 24.148438 216.53125 24.238281 C 215.746094 24.3125 214.980469 24.539062 214.195312 24.617188 C 212.894531 24.742188 211.546875 24.632812 210.296875 24.925781 C 208.738281 25.292969 207.101562 25.367188 205.617188 26.074219 C 204.226562 26.738281 202.582031 26.757812 201.316406 27.757812 C 201.230469 27.824219 201.074219 27.796875 200.972656 27.851562 C 200.4375 28.132812 199.855469 28.351562 199.398438 28.726562 C 198.324219 29.617188 197.265625 30.535156 196.285156 31.53125 C 195.351562 32.476562 194.46875 33.492188 193.652344 34.550781 C 192.835938 35.605469 192.140625 36.753906 191.375 37.847656 C 191.222656 38.070312 191.035156 38.289062 190.816406 38.4375 C 190.773438 38.464844 190.730469 38.492188 190.683594 38.523438 C 190.140625 39.878906 188.679688 40.441406 187.480469 41.191406 C 186.785156 41.625 186.113281 42.113281 185.40625 42.535156 C 185.027344 43.082031 184.425781 43.3125 183.8125 43.511719 C 182.777344 43.855469 181.710938 44.109375 180.648438 44.378906 C 180.089844 44.523438 179.550781 44.652344 179.042969 44.976562 C 178.648438 45.226562 178.136719 45.308594 177.664062 45.417969 C 177.132812 45.542969 176.570312 45.546875 176.050781 45.714844 C 173.410156 46.582031 170.660156 46.90625 167.9375 47.34375 C 165.332031 47.765625 162.707031 48.15625 160.050781 48.113281 C 159.859375 48.109375 159.667969 48.074219 159.261719 48.023438 C 159.652344 47.796875 159.847656 47.667969 160.050781 47.558594 C 160.707031 47.191406 161.40625 46.882812 162.015625 46.445312 C 162.832031 45.863281 163.605469 45.246094 164.542969 44.84375 C 165.347656 44.492188 166.113281 44.046875 166.859375 43.585938 C 167.472656 43.207031 168.023438 42.726562 168.621094 42.316406 C 169.273438 41.871094 169.957031 41.476562 170.605469 41.023438 C 171.277344 40.554688 171.933594 40.066406 172.570312 39.550781 C 172.964844 39.230469 173.269531 38.796875 173.675781 38.496094 C 175.378906 37.238281 176.746094 35.660156 178.097656 34.050781 C 179.089844 32.863281 180.089844 31.675781 181.171875 30.574219 C 182.128906 29.601562 183.171875 28.703125 184.25 27.859375 C 184.742188 27.472656 184.957031 26.960938 185.226562 26.46875 C 185.460938 26.039062 185.210938 25.761719 184.726562 25.824219 C 184.308594 25.875 183.882812 25.882812 183.476562 25.980469 C 182.59375 26.195312 181.707031 26.414062 180.847656 26.703125 C 180.105469 26.953125 179.414062 27.367188 178.664062 27.59375 C 176.898438 28.132812 175.28125 28.929688 173.769531 29.988281 C 173.074219 30.472656 172.3125 30.859375 171.601562 31.328125 C 170.667969 31.945312 169.671875 32.5 168.855469 33.246094 C 165.953125 35.890625 163.460938 38.929688 160.875 41.878906 C 159.554688 43.382812 158.296875 44.945312 157.027344 46.492188 C 156.390625 47.269531 155.589844 47.789062 154.667969 48.15625 C 154.503906 48.21875 154.3125 48.304688 154.148438 48.273438 C 152.839844 48.035156 151.488281 48.054688 150.21875 47.5625 C 149.230469 47.179688 148.21875 46.855469 147.203125 46.5625 C 145.402344 46.035156 143.585938 45.554688 141.777344 45.039062 C 139.882812 44.496094 138 43.894531 136.097656 43.390625 C 134.246094 42.90625 132.386719 42.476562 130.734375 41.449219 C 130.398438 41.242188 130.070312 40.996094 129.699219 40.875 C 128.519531 40.488281 127.332031 40.113281 126.136719 39.796875 C 124.464844 39.359375 122.785156 38.960938 121.097656 38.585938 C 119.710938 38.273438 118.308594 38.019531 116.914062 37.746094 C 116.082031 37.585938 115.234375 37.484375 114.410156 37.285156 C 113.675781 37.105469 112.964844 36.832031 112.25 36.589844 C 111.980469 36.5 111.660156 36.476562 111.460938 36.042969 C 112.367188 35.890625 113.191406 35.710938 114.027344 35.613281 C 115.683594 35.421875 117.359375 35.417969 119.003906 35.097656 C 120.164062 34.871094 121.34375 34.738281 122.484375 34.453125 C 123.71875 34.144531 124.929688 33.726562 126.136719 33.316406 C 127.023438 33.011719 127.925781 32.71875 128.757812 32.292969 C 130.625 31.335938 132.457031 30.320312 134.285156 29.296875 C 135.949219 28.367188 137.484375 27.226562 139.222656 26.410156 C 139.84375 26.117188 140.382812 25.449219 140.363281 24.585938 C 140.246094 24.53125 140.167969 24.480469 140.085938 24.464844 C 138.363281 24.070312 136.617188 23.886719 134.855469 23.90625 C 134.011719 23.917969 133.167969 24.058594 132.324219 24.15625 C 131.941406 24.199219 131.554688 24.351562 131.179688 24.332031 C 129.195312 24.210938 127.253906 24.632812 125.289062 24.785156 C 124.238281 24.867188 123.203125 25.183594 122.164062 25.394531 C 121.835938 25.460938 121.496094 25.484375 121.183594 25.589844 C 119.453125 26.152344 117.726562 26.710938 116.011719 27.316406 C 115.097656 27.636719 114.1875 27.992188 113.316406 28.417969 C 112.171875 28.976562 111.0625 29.617188 109.941406 30.226562 C 109.730469 30.339844 109.507812 30.453125 109.316406 30.597656 C 108.417969 31.273438 107.503906 31.933594 106.640625 32.652344 C 106.0625 33.132812 105.527344 33.675781 105.027344 34.238281 C 104.675781 34.628906 104.316406 34.777344 103.820312 34.636719 C 102.707031 34.320312 101.597656 34.015625 100.476562 33.71875 C 99.863281 33.554688 99.214844 33.484375 98.628906 33.246094 C 97.488281 32.78125 96.300781 32.570312 95.097656 32.398438 C 94.019531 32.246094 92.914062 32.175781 91.878906 31.871094 C 90.789062 31.550781 89.707031 31.300781 88.578125 31.257812 C 86.929688 31.195312 85.324219 30.847656 83.746094 30.421875 C 81.8125 29.894531 79.898438 29.347656 77.875 29.34375 C 77.085938 29.339844 76.292969 29.351562 75.515625 29.25 C 73.734375 29.023438 71.960938 28.953125 70.167969 29.125 C 69.082031 29.226562 67.980469 29.191406 66.886719 29.21875 C 65.855469 29.25 64.828125 29.265625 63.796875 29.316406 C 62.128906 29.402344 60.464844 29.570312 58.796875 29.589844 C 57.625 29.601562 56.5 29.800781 55.386719 30.105469 C 53.867188 30.515625 52.355469 30.957031 50.835938 31.367188 C 49.261719 31.796875 47.683594 32.21875 46.097656 32.605469 C 45.992188 32.632812 45.890625 32.648438 45.789062 32.660156 C 45.472656 32.808594 45.164062 32.972656 44.832031 33.074219 C 44.378906 33.21875 43.929688 33.246094 43.460938 33.300781 C 42.203125 33.460938 41.046875 34.058594 39.804688 34.320312 C 39.570312 34.371094 39.355469 34.339844 39.179688 34.261719 C 39.042969 34.273438 38.902344 34.289062 38.765625 34.304688 C 38.050781 34.40625 37.335938 34.523438 36.625 34.664062 C 36.214844 34.75 35.820312 34.910156 35.410156 35.015625 C 34.734375 35.195312 34.058594 35.351562 33.382812 35.527344 C 32.941406 35.640625 32.507812 35.875 32.066406 35.878906 C 31.09375 35.890625 30.238281 36.261719 29.335938 36.523438 C 29.042969 36.609375 28.722656 36.800781 28.296875 36.511719 C 28.714844 36.070312 29.164062 35.804688 29.636719 35.550781 C 30.414062 35.132812 31.226562 34.761719 31.929688 34.242188 C 33.589844 33.015625 35.195312 31.707031 36.832031 30.449219 C 37.84375 29.671875 38.882812 28.929688 39.902344 28.164062 C 40.433594 27.757812 40.976562 27.363281 41.460938 26.90625 C 42.679688 25.761719 43.871094 24.585938 45.074219 23.429688 C 45.1875 23.320312 45.332031 23.238281 45.519531 23.113281 C 46.164062 22.378906 46.917969 21.738281 47.675781 21.121094 C 48.113281 20.765625 48.554688 20.410156 48.996094 20.058594 C 49.484375 19.519531 49.953125 18.964844 50.390625 18.378906 C 50.441406 18.308594 50.5 18.261719 50.5625 18.230469 C 51.335938 17.355469 52.105469 16.472656 52.878906 15.59375 C 53.238281 15.1875 53.617188 14.789062 53.960938 14.371094 C 54.628906 13.542969 55.261719 12.691406 55.9375 11.867188 C 56.496094 11.1875 57.066406 10.515625 57.667969 9.875 C 58.234375 9.28125 58.78125 8.640625 59.457031 8.199219 C 60.179688 7.730469 60.390625 7.042969 60.625 6.335938 C 60.773438 5.882812 60.5 5.625 60.035156 5.757812 C 59.804688 5.824219 59.601562 5.964844 59.378906 6.070312 C 58.835938 6.339844 58.3125 6.671875 57.738281 6.863281 C 55.550781 7.601562 53.394531 8.421875 51.339844 9.480469 C 50.800781 9.761719 50.164062 9.910156 49.707031 10.285156 C 48.375 11.386719 46.734375 11.917969 45.289062 12.8125 C 43.863281 13.695312 42.425781 14.523438 41.265625 15.753906 C 41.0625 15.96875 40.785156 16.132812 40.511719 16.242188 C 39.507812 16.648438 38.636719 17.238281 37.859375 17.984375 C 37.53125 18.300781 37.230469 18.679688 36.84375 18.890625 C 35.625 19.5625 34.742188 20.632812 33.679688 21.484375 C 32.78125 22.207031 31.988281 23.0625 31.0625 23.75 C 30.007812 24.535156 29.109375 25.480469 28.207031 26.421875 C 27.136719 27.539062 26.21875 28.785156 25.335938 30.050781 C 24.78125 30.847656 24.277344 31.679688 23.75 32.496094 C 23.425781 33.007812 23.152344 33.558594 22.769531 34.027344 C 21.695312 35.332031 21.054688 36.800781 20.898438 38.484375 C 20.859375 38.945312 20.636719 39.257812 20.226562 39.492188 C 18.632812 40.394531 16.945312 41.042969 15.214844 41.640625 C 13.84375 42.117188 12.542969 42.808594 11.238281 43.460938 C 9.882812 44.144531 8.617188 45.035156 7.207031 45.578125 C 5.222656 46.34375 3.75 47.8125 2.046875 48.960938 C 1.925781 49.042969 1.824219 49.171875 1.738281 49.292969 C 1.554688 49.550781 1.425781 49.835938 1.632812 50.136719 C 1.84375 50.441406 2.15625 50.425781 2.449219 50.28125 C 2.882812 50.066406 3.3125 49.839844 3.71875 49.578125 C 4.742188 48.921875 5.707031 48.167969 6.773438 47.597656 C 8.242188 46.816406 9.800781 46.230469 11.246094 45.355469 C 12.738281 44.449219 14.398438 43.765625 16.050781 43.183594 C 17.632812 42.625 19.09375 41.828125 20.617188 41.15625 C 21.445312 40.792969 22.230469 40.289062 23.089844 40.035156 C 25.652344 39.28125 28.261719 38.675781 30.820312 37.902344 C 32.707031 37.332031 34.71875 37.230469 36.515625 36.34375 C 36.777344 36.214844 37.105469 36.207031 37.40625 36.164062 C 38.246094 36.039062 39.109375 35.992188 39.929688 35.789062 C 41.460938 35.421875 42.972656 34.957031 44.492188 34.554688 C 45.371094 34.316406 46.265625 34.128906 47.148438 33.898438 C 47.941406 33.691406 48.742188 33.515625 49.503906 33.226562 C 50.867188 32.714844 52.203125 32.140625 53.699219 32.097656 C 54.160156 32.085938 54.410156 32.128906 54.40625 32.640625 C 54.40625 32.78125 54.46875 32.925781 54.515625 33.113281 C 55.375 33.117188 56.023438 33.476562 56.578125 34.113281 C 57.890625 35.613281 59.554688 36.707031 61.167969 37.839844 C 62.382812 38.695312 63.699219 39.410156 65.003906 40.132812 C 66.433594 40.933594 67.875 41.71875 69.351562 42.421875 C 70.636719 43.035156 71.972656 43.539062 73.296875 44.0625 C 74.707031 44.621094 76.132812 45.144531 77.546875 45.695312 C 78.027344 45.878906 78.488281 46.136719 78.972656 46.296875 C 81.015625 46.988281 83.050781 47.695312 85.117188 48.3125 C 87.988281 49.179688 90.878906 49.984375 93.765625 50.792969 C 94.019531 50.867188 94.324219 50.859375 94.578125 50.796875 C 94.851562 50.722656 95.171875 50.59375 95.328125 50.382812 C 95.546875 50.089844 95.28125 49.820312 95.066406 49.597656 C 94.960938 49.488281 94.855469 49.375 94.746094 49.273438 C 92.789062 47.457031 90.898438 45.566406 88.695312 44.027344 C 88.273438 43.734375 87.832031 43.429688 87.503906 43.042969 C 86.398438 41.726562 85.015625 40.722656 83.683594 39.679688 C 81.628906 38.070312 79.449219 36.628906 77.308594 35.125 C 77.0625 34.949219 76.773438 34.832031 76.492188 34.722656 C 75.304688 34.257812 74.085938 33.871094 72.9375 33.328125 C 70.609375 32.230469 68.152344 31.789062 65.617188 31.621094 C 64.90625 31.574219 64.199219 31.460938 63.496094 31.378906 C 63.628906 31.167969 63.757812 31.09375 63.898438 31.078125 C 65.132812 30.941406 66.367188 30.789062 67.605469 30.691406 C 68.449219 30.625 69.300781 30.632812 70.152344 30.621094 C 71.332031 30.605469 72.527344 30.480469 73.691406 30.625 C 74.976562 30.785156 76.230469 31.234375 77.539062 30.796875 C 77.617188 30.773438 77.71875 30.796875 77.808594 30.804688 C 79.421875 30.925781 80.976562 31.265625 82.523438 31.789062 C 83.835938 32.230469 85.238281 32.585938 86.613281 32.625 C 88.066406 32.667969 89.4375 32.976562 90.824219 33.289062 C 91.269531 33.390625 91.734375 33.457031 92.136719 33.65625 C 92.648438 33.917969 93.175781 33.976562 93.722656 33.988281 C 95.464844 34.019531 97.179688 34.160156 98.785156 34.933594 C 98.972656 35.027344 99.191406 35.054688 99.402344 35.101562 C 99.828125 35.199219 100.257812 35.296875 100.5 35.570312 C 100.519531 35.566406 100.542969 35.566406 100.566406 35.5625 C 100.703125 35.558594 100.835938 35.546875 100.972656 35.554688 C 101.25 35.5625 101.546875 35.609375 101.816406 35.6875 C 102.1875 35.789062 102.546875 35.945312 102.886719 36.121094 C 103 36.128906 103.109375 36.136719 103.21875 36.148438 C 104.363281 36.277344 105.5 36.484375 106.617188 36.757812 C 107.992188 37.09375 109.324219 37.621094 110.710938 37.894531 C 111.839844 38.117188 112.96875 38.25 114.023438 38.75 C 114.1875 38.832031 114.367188 38.902344 114.542969 38.914062 C 116.039062 39.007812 117.457031 39.476562 118.902344 39.8125 C 119.90625 40.042969 120.921875 40.214844 121.929688 40.4375 C 123.347656 40.753906 124.761719 41.113281 126.183594 41.425781 C 127.734375 41.765625 129.226562 42.230469 130.5 43.238281 C 130.78125 43.460938 131.128906 43.734375 131.453125 43.746094 C 132.378906 43.761719 133.125 44.25 133.953125 44.519531 C 134.988281 44.863281 135.492188 45.597656 135.90625 46.527344 C 136.3125 47.441406 136.828125 48.304688 137.296875 49.1875 C 137.410156 49.402344 137.546875 49.605469 137.65625 49.820312 C 138.523438 51.523438 139.371094 53.238281 140.265625 54.925781 C 140.550781 55.453125 140.917969 55.960938 141.324219 56.402344 C 143.304688 58.546875 145.28125 60.695312 147.324219 62.777344 C 148.363281 63.839844 149.535156 64.773438 150.660156 65.746094 C 151.140625 66.164062 151.664062 66.535156 152.152344 66.941406 C 152.277344 67.046875 152.355469 67.152344 152.386719 67.265625 C 154.21875 68.601562 156.320312 69.777344 158 71.328125 C 158.121094 71.40625 158.230469 71.488281 158.335938 71.578125 C 158.59375 71.800781 158.839844 72.039062 159.078125 72.285156 C 159.882812 72.671875 160.667969 73.082031 161.394531 73.589844 C 161.515625 73.554688 161.625 73.503906 161.703125 73.429688 C 161.824219 73.324219 161.714844 72.875 161.617188 72.609375 C 161.371094 71.960938 161.019531 71.351562 160.808594 70.691406 C 160.363281 69.300781 160.003906 67.886719 159.570312 66.496094 C 159.546875 66.417969 159.527344 66.347656 159.511719 66.269531 C 159.5 66.242188 159.488281 66.214844 159.476562 66.183594 C 159.230469 65.816406 158.992188 65.441406 158.714844 65.097656 C 158.050781 64.265625 157.457031 63.414062 156.902344 62.5 C 156.804688 62.34375 156.761719 62.191406 156.753906 62.042969 C 156.6875 61.976562 156.636719 61.90625 156.597656 61.835938 C 155.242188 60.242188 153.890625 58.648438 152.527344 57.066406 C 152.050781 56.515625 151.542969 55.988281 151.019531 55.480469 C 150.542969 55.019531 150.023438 54.589844 149.519531 54.164062 C 147.894531 52.789062 146.332031 51.332031 144.625 50.074219 C 143.15625 48.992188 141.710938 47.902344 140.34375 46.699219 C 140.128906 46.507812 139.855469 46.328125 140.011719 45.855469 C 140.351562 45.96875 140.65625 46.070312 140.964844 46.171875 C 141.367188 46.304688 141.761719 46.488281 142.179688 46.554688 C 143.933594 46.835938 145.621094 47.316406 147.199219 48.136719 C 148.714844 48.925781 150.335938 49.265625 152.035156 49.257812 C 152.425781 49.253906 152.828125 49.296875 153.210938 49.371094 C 153.332031 49.394531 153.492188 49.519531 153.550781 49.636719 C 154.332031 49.515625 155.171875 49.570312 155.957031 49.738281 C 156.925781 49.429688 157.9375 49.257812 159.019531 49.320312 C 160.105469 49.382812 161.199219 49.230469 162.292969 49.167969 C 162.992188 49.125 163.6875 49.085938 164.382812 49.007812 C 165.378906 48.894531 166.371094 48.773438 167.359375 48.609375 C 168.066406 48.492188 168.808594 48.480469 169.449219 48.042969 C 169.628906 47.921875 169.910156 47.953125 170.144531 47.921875 C 171.191406 47.789062 172.265625 47.839844 173.273438 47.4375 C 173.726562 47.257812 174.195312 47.101562 174.664062 47.007812 C 177.496094 46.445312 180.285156 45.703125 183.015625 44.777344 C 183.847656 44.496094 184.691406 44.226562 185.488281 43.867188 C 186.480469 43.414062 187.425781 42.851562 188.40625 42.371094 C 189.578125 41.792969 190.539062 40.996094 191.253906 39.886719 C 191.40625 39.65625 191.707031 39.476562 191.972656 39.386719 C 192.34375 39.265625 192.75 39.195312 193.140625 39.199219 C 195.324219 39.203125 197.40625 38.613281 199.503906 38.136719 C 201.214844 37.746094 202.898438 37.214844 204.566406 36.648438 C 205.652344 36.285156 206.699219 35.796875 207.730469 35.292969 C 208.546875 34.898438 209.296875 34.367188 210.101562 33.945312 C 211.480469 33.222656 212.765625 32.355469 213.925781 31.328125 C 215.453125 29.976562 217.007812 28.671875 218.746094 27.601562 C 219.703125 27.011719 220.664062 26.410156 221.679688 25.953125 C 222.324219 25.667969 222.648438 25.164062 223.007812 24.65625 Z M 45.746094 20.703125 C 44.398438 21.976562 43.113281 23.316406 41.796875 24.621094 C 40.960938 25.449219 40.113281 26.261719 39.265625 27.082031 C 39.113281 27.230469 38.960938 27.394531 38.777344 27.488281 C 37.585938 28.089844 36.722656 29.089844 35.714844 29.917969 C 34.527344 30.894531 33.265625 31.78125 32.039062 32.707031 C 31.671875 32.160156 31.375 31.710938 31.050781 31.226562 C 31.449219 30.558594 31.984375 30.003906 32.617188 29.515625 C 33.53125 28.8125 34.386719 28.03125 35.289062 27.320312 C 35.855469 26.871094 36.464844 26.480469 37.0625 26.066406 C 37.898438 25.492188 38.757812 24.960938 39.566406 24.324219 C 40.746094 23.386719 42.027344 22.566406 43.183594 21.582031 C 43.898438 20.972656 44.597656 20.339844 45.316406 19.734375 C 45.609375 19.484375 45.941406 19.277344 46.335938 18.992188 C 46.429688 19.765625 46.238281 20.238281 45.746094 20.703125 Z M 24.019531 34.8125 C 24.164062 33.980469 24.476562 33.425781 25.207031 33.0625 C 25.425781 33.609375 25.335938 34.117188 25.289062 34.769531 C 24.835938 34.789062 24.472656 34.796875 24.019531 34.8125 Z M 32.640625 27.828125 C 31.671875 28.828125 30.523438 29.648438 29.484375 30.585938 C 28.855469 31.152344 28.292969 31.789062 27.695312 32.386719 C 27.550781 32.53125 27.390625 32.652344 27.207031 32.800781 C 26.914062 32.246094 26.648438 31.746094 26.335938 31.152344 C 26.917969 30.136719 27.691406 29.179688 28.492188 28.21875 C 29.988281 26.433594 31.886719 25.109375 33.613281 23.582031 C 34.722656 22.601562 35.722656 21.492188 36.820312 20.492188 C 37.355469 20.003906 38 19.644531 38.589844 19.214844 C 39.964844 18.222656 41.3125 17.183594 42.722656 16.246094 C 44.394531 15.140625 46.078125 14.039062 47.839844 13.09375 C 49.925781 11.972656 52.09375 11.019531 54.242188 10.019531 C 54.632812 9.839844 55.089844 9.800781 55.515625 9.695312 L 55.644531 9.945312 C 55.507812 10.132812 55.382812 10.328125 55.230469 10.503906 C 54.96875 10.800781 54.640625 11.050781 54.425781 11.375 C 53.726562 12.429688 52.667969 13.019531 51.605469 13.613281 C 51.445312 13.699219 51.234375 13.75 51.140625 13.882812 C 50.53125 14.765625 49.515625 15.140625 48.761719 15.839844 C 48.671875 15.921875 48.578125 16.015625 48.46875 16.054688 C 47.128906 16.554688 46.246094 17.714844 45.0625 18.433594 C 44.671875 18.667969 44.300781 18.925781 43.925781 19.183594 C 43.652344 19.375 43.339844 19.539062 43.132812 19.789062 C 42.738281 20.273438 42.347656 20.683594 41.644531 20.707031 C 41.4375 20.714844 41.203125 20.996094 41.039062 21.203125 C 40.722656 21.601562 40.398438 21.875 39.832031 21.886719 C 39.179688 21.898438 39.023438 22.058594 38.960938 22.695312 C 38.910156 23.226562 38.601562 23.484375 38.199219 23.738281 C 36.246094 24.972656 34.265625 26.140625 32.640625 27.828125 Z M 25.300781 36.765625 C 25.75 36.050781 25.75 36.050781 26.832031 35.539062 C 26.5625 36.1875 25.988281 36.449219 25.300781 36.765625 Z M 29.398438 34.269531 C 29.09375 34.425781 28.726562 34.457031 28.503906 34.117188 C 28.289062 33.792969 28.550781 33.554688 28.746094 33.328125 C 29.566406 32.378906 29.796875 32.386719 30.664062 33.484375 C 30.207031 33.773438 29.820312 34.058594 29.398438 34.269531 Z M 59.015625 34.546875 C 59.023438 34.226562 58.957031 33.976562 59.054688 33.863281 C 59.28125 33.609375 59.582031 33.730469 59.761719 33.945312 C 59.859375 34.066406 59.820312 34.304688 59.839844 34.492188 C 59.601562 34.507812 59.359375 34.523438 59.015625 34.546875 Z M 60.128906 35.058594 C 60.113281 35.027344 60.152344 34.964844 60.164062 34.925781 C 60.21875 34.921875 60.269531 34.917969 60.324219 34.914062 C 60.304688 34.984375 60.289062 35.050781 60.269531 35.121094 C 60.21875 35.101562 60.152344 35.097656 60.128906 35.058594 Z M 66.179688 32.894531 C 67.609375 33.183594 69.039062 33.460938 70.457031 33.792969 C 71.015625 33.925781 71.550781 34.167969 72.074219 34.414062 C 73.636719 35.148438 75.238281 35.828125 76.738281 36.679688 C 78.636719 37.761719 80.460938 38.972656 82.140625 40.386719 C 83.558594 41.578125 84.941406 42.8125 86.34375 44.015625 C 86.753906 44.367188 87.1875 44.6875 87.609375 45.023438 C 84.800781 43.96875 82.34375 42.351562 79.832031 40.820312 C 78.515625 40.019531 77.105469 39.359375 75.703125 38.714844 C 75.046875 38.414062 74.304688 38.324219 73.617188 38.097656 C 72.988281 37.894531 72.367188 37.65625 71.761719 37.382812 C 69.738281 36.472656 67.726562 35.542969 65.714844 34.617188 C 65.257812 34.40625 65.136719 33.949219 65.3125 33.28125 C 65.4375 32.769531 65.816406 32.824219 66.179688 32.894531 Z M 63.464844 35.1875 C 65.042969 35.894531 66.585938 36.675781 68.152344 37.40625 C 68.953125 37.777344 69.757812 38.136719 70.585938 38.4375 C 71.777344 38.871094 73.03125 39.164062 74.195312 39.671875 C 75.578125 40.269531 77.019531 40.761719 78.289062 41.632812 C 79.5625 42.511719 80.859375 43.375 82.21875 44.09375 C 84.011719 45.039062 85.902344 45.804688 87.714844 46.710938 C 88.703125 47.207031 89.628906 47.828125 90.585938 48.390625 C 90.566406 48.457031 90.550781 48.527344 90.53125 48.59375 C 90.285156 48.570312 90.035156 48.578125 89.789062 48.527344 C 87.980469 48.136719 86.160156 47.804688 84.4375 47.070312 C 83.492188 46.664062 82.453125 46.492188 81.496094 46.117188 C 79.945312 45.511719 78.421875 44.828125 76.882812 44.179688 C 76.355469 43.953125 75.816406 43.746094 75.292969 43.511719 C 74.71875 43.25 74.164062 42.925781 73.582031 42.683594 C 72.855469 42.386719 72.121094 42.082031 71.359375 41.890625 C 70.128906 41.578125 69.113281 40.84375 68.007812 40.289062 C 66.792969 39.675781 65.652344 38.925781 64.464844 38.257812 C 64.121094 38.066406 64.023438 37.839844 64.023438 37.457031 C 64.023438 36.617188 63.699219 36.433594 62.953125 36.773438 C 62.292969 37.078125 62.042969 37.007812 61.519531 36.363281 C 61.707031 35.808594 61.867188 35.339844 62.070312 34.75 C 62.496094 34.710938 62.992188 34.976562 63.464844 35.1875 Z M 63.925781 32.800781 C 63.847656 33.394531 63.554688 33.605469 63.097656 33.523438 C 62.390625 33.390625 61.722656 33.144531 61.144531 32.652344 C 62.085938 32.488281 62.996094 32.535156 63.925781 32.800781 Z M 135.222656 27.476562 C 135.054688 27.617188 134.90625 27.785156 134.71875 27.890625 C 132.6875 29.050781 130.648438 30.203125 128.605469 31.347656 C 128.375 31.480469 128.09375 31.523438 127.835938 31.609375 C 127.234375 31.8125 126.632812 32.027344 126.027344 32.21875 C 124.128906 32.839844 122.277344 33.621094 120.253906 33.8125 C 118.804688 33.953125 117.363281 34.175781 115.914062 34.332031 C 115.441406 34.382812 114.964844 34.34375 114.441406 34.347656 C 114.734375 33.757812 114.929688 33.238281 115.234375 32.808594 C 115.425781 32.535156 115.761719 32.285156 116.074219 32.191406 C 117.292969 31.828125 118.542969 31.550781 119.769531 31.210938 C 120.9375 30.886719 122.097656 30.523438 123.261719 30.1875 C 123.988281 29.976562 124.71875 29.773438 125.449219 29.578125 C 126.09375 29.402344 126.769531 29.316406 127.390625 29.066406 C 129.046875 28.402344 130.828125 28.320312 132.53125 27.890625 C 133.089844 27.75 133.644531 27.589844 134.203125 27.453125 C 134.511719 27.382812 134.824219 27.335938 135.136719 27.28125 Z M 112.300781 34.722656 C 111.203125 34.867188 110.097656 34.980469 108.996094 35.113281 C 108.972656 35.046875 108.949219 34.980469 108.925781 34.917969 C 109.035156 34.824219 109.128906 34.6875 109.25 34.644531 C 110.144531 34.367188 111.039062 34.089844 111.945312 33.859375 C 112.136719 33.808594 112.441406 33.878906 112.570312 34.015625 C 112.867188 34.316406 112.726562 34.664062 112.300781 34.722656 Z M 112.28125 32.320312 C 111.84375 32.484375 111.476562 32.691406 111 32.375 C 110.84375 32.269531 110.453125 32.351562 110.273438 32.488281 C 109.949219 32.730469 109.660156 32.925781 109.230469 32.960938 C 108.980469 32.980469 108.671875 33.21875 108.53125 33.445312 C 108.191406 33.996094 107.695312 34.183594 107.132812 34.289062 C 107.089844 34.21875 107.042969 34.152344 107 34.082031 C 107.433594 33.710938 107.84375 33.3125 108.300781 32.976562 C 108.984375 32.472656 109.695312 32 110.410156 31.539062 C 110.945312 31.195312 111.472656 30.828125 112.175781 30.953125 C 112.546875 31.019531 112.808594 30.789062 112.984375 30.480469 C 113.226562 30.0625 113.597656 29.855469 114.050781 29.691406 C 116.394531 28.847656 118.714844 27.941406 121.0625 27.121094 C 121.828125 26.855469 122.65625 26.75 123.464844 26.628906 C 124.667969 26.449219 125.886719 26.367188 127.082031 26.164062 C 129.636719 25.738281 132.222656 26.054688 134.785156 25.773438 C 135.3125 25.71875 135.84375 25.703125 136.414062 25.667969 C 136.363281 25.84375 136.359375 25.941406 136.332031 25.945312 C 134.980469 26.25 133.617188 26.535156 132.265625 26.84375 C 130.964844 27.144531 129.667969 27.457031 128.371094 27.785156 C 125.964844 28.398438 123.558594 29.027344 121.148438 29.644531 C 119.53125 30.058594 117.898438 30.40625 116.300781 30.878906 C 114.945312 31.289062 113.613281 31.816406 112.28125 32.320312 Z M 158.730469 70.328125 C 158.378906 69.746094 157.671875 69.285156 158.058594 68.382812 C 158.613281 68.863281 158.84375 69.480469 158.730469 70.328125 Z M 151.199219 58.058594 C 151.476562 58.277344 151.792969 58.464844 152.019531 58.722656 C 153.375 60.269531 154.714844 61.835938 156.050781 63.402344 C 156.441406 63.863281 156.429688 64.199219 156.078125 64.621094 C 155.609375 65.183594 155.25 65.175781 154.921875 64.496094 C 154.339844 63.285156 153.539062 62.226562 152.730469 61.164062 C 152.035156 60.253906 151.523438 59.234375 150.996094 58.226562 C 151.0625 58.171875 151.132812 58.113281 151.199219 58.058594 Z M 140.050781 49.371094 C 140.46875 49.09375 140.726562 49.273438 140.988281 49.566406 C 142.117188 50.832031 143.238281 52.105469 144.375 53.363281 C 145.003906 54.0625 145.625 54.777344 146.296875 55.429688 C 147.636719 56.722656 148.738281 58.207031 149.78125 59.738281 C 150.445312 60.71875 151.210938 61.625 151.878906 62.605469 C 152.445312 63.429688 152.941406 64.300781 153.453125 65.164062 C 153.59375 65.394531 153.726562 65.652344 153.769531 65.914062 C 153.800781 66.082031 153.710938 66.332031 153.585938 66.453125 C 153.5 66.53125 153.257812 66.453125 153.089844 66.425781 C 153.039062 66.417969 152.988281 66.363281 152.941406 66.324219 C 151.839844 65.417969 150.734375 64.507812 149.511719 63.496094 C 149.519531 63.503906 149.40625 63.398438 149.324219 63.269531 C 148.773438 62.335938 147.882812 61.71875 147.164062 60.941406 C 146.523438 60.253906 145.855469 59.585938 145.234375 58.878906 C 144.0625 57.5625 142.90625 56.230469 141.769531 54.882812 C 140.671875 53.582031 140.136719 51.976562 139.5 50.433594 C 139.28125 49.910156 139.40625 49.800781 140.050781 49.371094 Z M 138.480469 48.402344 C 137.867188 48.03125 137.820312 47.304688 137.40625 46.710938 C 137.761719 46.847656 138.039062 46.957031 138.316406 47.058594 C 139.144531 47.351562 139.199219 47.714844 138.480469 48.402344 Z M 178.882812 28.996094 C 178.917969 29.03125 178.949219 29.070312 178.984375 29.109375 C 178.796875 29.230469 178.609375 29.351562 178.421875 29.472656 L 178.421875 29.476562 Z M 167.292969 38.238281 C 166.109375 39.320312 164.929688 40.414062 163.765625 41.515625 C 163.5 41.765625 163.316406 42.097656 163.054688 42.339844 C 162.050781 43.25 161.027344 44.136719 159.921875 44.949219 C 160.621094 44.085938 161.300781 43.207031 162.019531 42.363281 C 162.746094 41.507812 163.539062 40.710938 164.257812 39.847656 C 165.765625 38.027344 167.445312 36.363281 169.132812 34.707031 C 169.472656 34.371094 169.894531 34.109375 170.292969 33.832031 C 172.570312 32.273438 174.8125 30.660156 177.371094 29.5625 C 177.722656 29.414062 178.046875 29.289062 178.410156 29.484375 C 177.367188 30.214844 176.304688 30.910156 175.28125 31.660156 C 173.796875 32.757812 172.3125 33.851562 170.886719 35.019531 C 169.640625 36.039062 168.480469 37.152344 167.292969 38.238281 Z M 163.464844 43.40625 C 164.34375 42.789062 165.074219 42.027344 165.753906 41.199219 C 166.113281 40.757812 166.542969 40.355469 166.992188 40.003906 C 167.902344 39.289062 168.789062 38.570312 169.550781 37.691406 C 169.984375 37.199219 170.574219 36.84375 171.09375 36.421875 C 173.101562 34.804688 175.101562 33.171875 177.125 31.570312 C 177.609375 31.1875 178.132812 30.835938 178.914062 30.707031 C 178.753906 30.992188 178.679688 31.1875 178.554688 31.335938 C 177.496094 32.589844 176.480469 33.878906 175.355469 35.066406 C 174.332031 36.144531 173.167969 37.085938 172.101562 38.117188 C 170.167969 39.984375 167.992188 41.527344 165.703125 42.921875 C 164.929688 43.394531 164.09375 43.726562 163.234375 43.992188 L 163.117188 43.796875 C 163.230469 43.664062 163.324219 43.5 163.464844 43.40625 Z M 199.238281 33.539062 C 198.839844 33.820312 198.503906 33.976562 197.988281 33.8125 C 197.347656 33.613281 196.710938 34.101562 196.890625 34.722656 C 197.164062 35.671875 196.476562 36.003906 195.972656 36.398438 C 195.515625 36.757812 194.910156 36.925781 194.316406 37.203125 C 194.007812 36.453125 194.105469 35.949219 194.75 35.589844 C 195.445312 35.203125 195.851562 34.703125 196.007812 33.917969 C 196.074219 33.585938 196.328125 33.261719 196.5625 32.992188 C 197.734375 31.621094 199.042969 30.386719 200.640625 29.542969 C 201.867188 28.894531 203.125 28.285156 204.527344 28.054688 C 204.972656 27.980469 205.398438 27.789062 205.820312 27.617188 C 207.382812 26.980469 209.039062 26.753906 210.683594 26.464844 C 211.140625 26.386719 211.597656 26.285156 212.0625 26.191406 C 212.164062 26.617188 211.894531 26.683594 211.691406 26.785156 C 210.269531 27.46875 208.832031 28.117188 207.425781 28.835938 C 206.101562 29.507812 204.820312 30.253906 203.507812 30.960938 C 203.058594 31.203125 202.5625 31.382812 202.128906 31.652344 C 201.152344 32.253906 200.179688 32.878906 199.238281 33.539062 Z M 217.101562 27.050781 C 216.15625 27.808594 215.207031 28.570312 214.234375 29.292969 C 212.480469 30.59375 210.710938 31.875 208.941406 33.152344 C 207.503906 34.195312 205.878906 34.894531 204.261719 35.578125 C 203.265625 36.003906 202.175781 36.214844 201.121094 36.496094 C 200.960938 36.539062 200.734375 36.515625 200.601562 36.425781 C 200.023438 36.039062 199.648438 36.3125 199.277344 36.746094 C 198.789062 37.320312 198.167969 37.410156 197.351562 37.199219 C 197.707031 36.542969 198.238281 36.128906 198.726562 35.726562 C 199.777344 34.855469 200.875 34.046875 201.976562 33.246094 C 202.417969 32.925781 202.898438 32.65625 203.382812 32.40625 C 205.675781 31.234375 207.996094 30.117188 210.265625 28.898438 C 211.367188 28.304688 212.578125 27.980469 213.660156 27.402344 C 214.691406 26.855469 215.765625 26.472656 216.847656 26.082031 C 217.199219 25.957031 217.585938 25.941406 217.957031 25.878906 C 218 25.96875 218.039062 26.054688 218.078125 26.148438 C 217.757812 26.449219 217.445312 26.773438 217.101562 27.050781 Z M 217.101562 27.050781 " fill-opacity="1" fill-rule="nonzero"/></g></g></g><g clip-path="url(#58d73bc9bc)"><g clip-path="url(#c28962fc4f)"><g clip-path="url(#18da990bd5)"><path fill="#7b3516" d="M 40.898438 19.972656 C 41.125 19.628906 41.296875 19.367188 41.515625 19.039062 C 41.867188 19.832031 41.839844 19.871094 40.898438 19.972656 Z M 40.898438 19.972656 " fill-opacity="1" fill-rule="nonzero"/></g></g></g><g clip-path="url(#6838a9705b)"><g clip-path="url(#28a47fa138)"><g clip-path="url(#6f3911b7dc)"><path fill="#7b3516" d="M 140.550781 51.769531 C 140.308594 51.511719 140.347656 50.921875 140.617188 50.699219 C 140.84375 50.511719 141.300781 50.558594 141.527344 50.792969 C 141.765625 51.035156 141.730469 51.382812 141.433594 51.667969 C 141.140625 51.949219 140.761719 51.992188 140.550781 51.769531 Z M 140.550781 51.769531 " fill-opacity="1" fill-rule="nonzero"/></g></g></g><g clip-path="url(#bd2fca5dd5)"><g clip-path="url(#592553aae3)"><g clip-path="url(#1586e10405)"><path fill="#7b3516" d="M 198.726562 31.527344 C 198.972656 31.269531 199.230469 31.210938 199.515625 31.472656 C 199.8125 31.75 199.824219 32.15625 199.539062 32.421875 C 199.25 32.695312 198.746094 32.777344 198.546875 32.585938 C 198.316406 32.371094 198.402344 31.859375 198.726562 31.527344 Z M 198.726562 31.527344 " fill-opacity="1" fill-rule="nonzero"/></g></g></g><g clip-path="url(#791bbf6b00)"><path fill="#ffffff" d="M 113.703125 15.011719 C 113.703125 15.996094 113.609375 16.972656 113.414062 17.9375 C 113.222656 18.902344 112.9375 19.839844 112.5625 20.75 C 112.1875 21.660156 111.722656 22.523438 111.175781 23.339844 C 110.628906 24.160156 110.007812 24.917969 109.3125 25.613281 C 108.617188 26.308594 107.859375 26.929688 107.039062 27.476562 C 106.222656 28.023438 105.359375 28.484375 104.449219 28.863281 C 103.539062 29.238281 102.601562 29.523438 101.636719 29.714844 C 100.671875 29.90625 99.695312 30.003906 98.710938 30.003906 C 97.726562 30.003906 96.753906 29.90625 95.785156 29.714844 C 94.820312 29.523438 93.882812 29.238281 92.976562 28.863281 C 92.066406 28.484375 91.203125 28.023438 90.382812 27.476562 C 89.5625 26.929688 88.808594 26.308594 88.109375 25.613281 C 87.414062 24.917969 86.792969 24.160156 86.246094 23.339844 C 85.699219 22.523438 85.238281 21.660156 84.859375 20.75 C 84.484375 19.839844 84.199219 18.902344 84.007812 17.9375 C 83.816406 16.972656 83.71875 15.996094 83.71875 15.011719 C 83.71875 14.027344 83.816406 13.050781 84.007812 12.085938 C 84.199219 11.121094 84.484375 10.183594 84.859375 9.273438 C 85.238281 8.367188 85.699219 7.5 86.246094 6.683594 C 86.792969 5.863281 87.414062 5.105469 88.109375 4.410156 C 88.808594 3.714844 89.5625 3.09375 90.382812 2.546875 C 91.203125 2 92.066406 1.539062 92.976562 1.160156 C 93.882812 0.785156 94.820312 0.5 95.785156 0.308594 C 96.753906 0.117188 97.726562 0.0195312 98.710938 0.0195312 C 99.695312 0.0195312 100.671875 0.117188 101.636719 0.308594 C 102.601562 0.5 103.539062 0.785156 104.449219 1.160156 C 105.359375 1.539062 106.222656 2 107.039062 2.546875 C 107.859375 3.09375 108.617188 3.714844 109.3125 4.410156 C 110.007812 5.105469 110.628906 5.863281 111.175781 6.683594 C 111.722656 7.5 112.1875 8.367188 112.5625 9.273438 C 112.9375 10.183594 113.222656 11.121094 113.414062 12.085938 C 113.609375 13.050781 113.703125 14.027344 113.703125 15.011719 Z M 113.703125 15.011719 " fill-opacity="1" fill-rule="nonzero"/></g></svg>